<?xml version="1.0" encoding="UTF-8"?><svg xmlns="http://www.w3.org/2000/svg" xmlns:xlink="http://www.w3.org/1999/xlink" viewBox="0 0 389.89 239.95"><defs><style>.m{fill:url(#l);}.n{fill:url(#f);}.o{fill:url(#g);}.p{fill:url(#i);}.q{fill:url(#h);}.r{fill:url(#d);}.s{fill:url(#e);}.t{fill:url(#j);}.u{fill:url(#k);}</style><linearGradient id="d" x1="226.37" y1="156.88" x2="226.37" y2="11.09" gradientTransform="matrix(1, 0, 0, 1, 0, 0)" gradientUnits="userSpaceOnUse"><stop offset=".04" stop-color="#fff177"/><stop offset=".32" stop-color="#f3d74e"/><stop offset=".61" stop-color="#eac22d"/><stop offset=".84" stop-color="#e5b61a"/><stop offset="1" stop-color="#e3b213"/></linearGradient><linearGradient id="e" x1="168.49" y1="239.23" x2="168.49" y2="66.45" xlink:href="#d"/><linearGradient id="f" x1="168.49" y1="75.1" x2="168.49" y2="75.03" xlink:href="#d"/><linearGradient id="g" x1="279.76" y1="239.95" x2="279.76" y2="18.33" xlink:href="#d"/><linearGradient id="h" x1="115.09" y1="239.95" x2="115.09" y2="18.33" xlink:href="#d"/><linearGradient id="i" x1="167.07" y1="239.95" x2="167.07" y2="75.03" gradientTransform="matrix(1, 0, 0, 1, 0, 0)" gradientUnits="userSpaceOnUse"><stop offset="0" stop-color="#e74310"/><stop offset=".99" stop-color="#be1622"/></linearGradient><linearGradient id="j" x1="284.52" y1="203.59" x2="284.52" y2="31.54" xlink:href="#i"/><linearGradient id="k" x1="0" y1="37.55" x2="144.04" y2="37.55" xlink:href="#d"/><linearGradient id="l" x1="248.54" y1="57.39" x2="392.58" y2="57.39" gradientTransform="translate(-4.54 20.54) rotate(-5.48)" xlink:href="#d"/></defs><g id="a"/><g id="b"><g id="c"><g><rect class="r" x="144.04" y="18.33" width="164.67" height="139.16"/><rect class="s" x="86.16" y="75.03" width="164.67" height="164.92"/><polygon class="n" points="250.83 75.03 250.83 75.1 86.16 75.1 86.23 75.03 250.83 75.03"/><polygon class="o" points="308.7 18.33 308.7 157.49 295.24 176.67 295.24 176.68 276.35 203.59 250.83 239.95 250.83 75.1 273.8 52.57 273.8 52.56 295.23 31.54 295.24 31.54 308.7 18.33"/><polygon class="q" points="144.03 18.33 144.03 157.49 130.57 176.67 130.57 176.68 111.68 203.59 86.16 239.95 86.16 75.1 109.13 52.57 109.13 52.56 130.56 31.54 130.57 31.54 144.03 18.33"/><rect class="p" x="141.05" y="75.03" width="52.04" height="164.92"/><polygon class="t" points="295.24 31.54 295.24 176.68 276.35 203.59 273.8 52.57 273.8 52.56 295.23 31.54 295.24 31.54"/><path class="u" d="M144.04,18.34S118.63,2.47,109.14,.82c-18.49-3.21-40.99,4.02-40.99,4.02L0,59s31.18-7.07,50.14-.64c9.2,3.12,36.02,16.74,36.02,16.74"/><path class="m" d="M389.89,20.94s-26.8-13.36-36.41-14.1c-18.72-1.43-45.2,11.5-45.2,11.5l-57.88,56.84s30.36-10.02,49.85-5.43c9.45,2.22,37.45,13.22,37.45,13.22"/></g></g></g></svg>