<?xml version="1.0" encoding="UTF-8"?><svg xmlns="http://www.w3.org/2000/svg" xmlns:xlink="http://www.w3.org/1999/xlink" viewBox="0 0 222.55 276.3"><defs><style>.q{fill:url(#l);}.r{fill:url(#m);}.s{fill:url(#f);}.t{fill:url(#p);}.u{fill:url(#g);}.v{fill:url(#i);}.w{fill:url(#h);}.x{fill:url(#d);}.y{fill:url(#e);}.a`{fill:url(#n);}.aa{fill:url(#j);}.ab{fill:url(#o);}.ac{fill:url(#k);}</style><linearGradient id="d" x1="82.33" y1="275.58" x2="82.33" y2="102.8" gradientTransform="matrix(1, 0, 0, 1, 0, 0)" gradientUnits="userSpaceOnUse"><stop offset=".04" stop-color="#fff177"/><stop offset=".32" stop-color="#f3d74e"/><stop offset=".61" stop-color="#eac22d"/><stop offset=".84" stop-color="#e5b61a"/><stop offset="1" stop-color="#e3b213"/></linearGradient><linearGradient id="e" x1="111.27" y1="111.45" x2="111.27" y2="54.68" xlink:href="#d"/><linearGradient id="f" x1="193.61" y1="276.3" x2="193.61" y2="54.68" xlink:href="#d"/><linearGradient id="g" x1="107.91" y1="276.3" x2="107.91" y2="54.68" gradientTransform="matrix(1, 0, 0, 1, 0, 0)" gradientUnits="userSpaceOnUse"><stop offset="0" stop-color="#e74310"/><stop offset=".99" stop-color="#be1622"/></linearGradient><linearGradient id="h" x1="116.03" y1="239.94" x2="116.03" y2="67.89" xlink:href="#g"/><linearGradient id="i" x1="109.39" y1="111.45" x2="208.72" y2="111.45" xlink:href="#g"/><linearGradient id="j" x1="-9.59" y1="109.63" x2="89.74" y2="109.63" gradientTransform="translate(98.34) rotate(-180) scale(1 -1)" xlink:href="#g"/><linearGradient id="k" x1="114.7" y1="42.72" x2="213.54" y2="38.7" xlink:href="#g"/><linearGradient id="l" x1="9.26" y1="62.09" x2="104.25" y2="62.09" xlink:href="#g"/><linearGradient id="m" x1="9.33" y1="41.41" x2="104.52" y2="41.41" xlink:href="#g"/><linearGradient id="n" x1="54.34" y1="39.56" x2="104.66" y2="39.56" xlink:href="#g"/><linearGradient id="o" x1="121.32" y1="63.41" x2="198.69" y2="60.26" xlink:href="#g"/><linearGradient id="p" x1="95.9" y1="74.59" x2="124.06" y2="74.59" xlink:href="#g"/></defs><g id="a"/><g id="b"><g id="c"><g><rect class="x" y="111.38" width="164.67" height="164.92"/><polygon class="y" points="222.55 54.68 57.88 54.68 0 111.45 164.67 111.45 222.55 54.68"/><polygon class="s" points="164.67 276.3 222.55 193.84 222.55 54.68 164.67 111.45 164.67 276.3"/><polyline class="u" points="160.93 54.68 106.93 111.38 106.93 276.3 54.89 276.3 54.89 111.38 106.93 54.68"/><polyline class="w" points="190.19 239.94 187.64 88.91 22.98 88.91 44.41 67.89 209.08 67.89 209.08 213.02"/><path class="v" d="M135.71,79.34c30.03,3.29,70.26,35.26,73.01,55.07-6.99-.68-26.49-12.66-29.44-6.16-1.07,3.58,6.62,18.26-2.37,16.48-21.36-14.95-31.9-39.4-59.91-52.2-17.31-7.91-2.57-18.23,18.71-13.19Z"/><path class="aa" d="M81.61,77.53c-30.03,3.29-70.26,35.26-73.01,55.07,6.99-.68,26.49-12.66,29.44-6.16,1.07,3.58-6.62,18.26,2.37,16.48,21.36-14.95,31.9-39.4,59.91-52.2,17.31-7.91,2.57-18.23-18.71-13.19Z"/><g><path class="ac" d="M121.91,77.98c-1.81-.52-3.69-1.08-5.61-1.66-3.23-.98,22.85-96.71,57.39-64.22,22.94,21.58,62.64,36.32,24.53,57.15,5.3-22.9-25.82-29-26.71-29.17,0,0-.01,0-.02,0-20.75-4.3-51.05,32.5-50.18,34.85l1.37,.41-.76,2.64Z"/><path class="q" d="M104.25,77.17c-31.08,6.24-46.03,6.91-77.64-12.83-13.41-8.37-18.03-15.18-17.28-21.22-.24,9.29,20.62,16.67,26.58,19.27,31.29,13.63,68.34,14.79,68.34,14.79Z"/><path class="r" d="M58.14,36c6.35,17.62,20.42,35.73,40.15,39.92,2.02,.44,4.09,.72,6.23,.84-.07,.25-.16,.39-.27,.41,0,0-37.05-1.16-68.34-14.79-5.95-2.6-26.82-9.98-26.58-19.27h0c.13-1.02,.4-2.01,.81-2.98,0-.02,.02-.04,.04-.07C14.96,28.9,37.42,20.02,53.32,7.73c1.02-.79,2.03-1.48,3.02-2.08-3.26,7.02-2.45,18.57,1.81,30.36Z"/><path class="a`" d="M104.52,76.76c-2.14-.11-4.21-.4-6.23-.84l.18-.84c.99-2.03-20.62-34.47-40.32-39.08-4.25-11.79-5.06-23.34-1.81-30.36,34.12-20.89,49.97,64.4,48.18,71.12Z"/><path class="ab" d="M171.51,40.08c.89,.16,32.01,6.26,26.71,29.17-1.08,.59-2.21,1.18-3.41,1.78-31.24,15.54-46.21,14.69-72.9,6.95l.76-2.64c41.63,1.75,50.29-34.45,48.84-35.26Z"/></g><path class="t" d="M101.81,66.45c2.95-4.9,23.2-10.59,22.22,1.11-1.27,15.03-6.36,19.95-13.16,20.58-6.79,.63-23.98,3.11-9.06-21.69Z"/></g></g></g></svg>